<?xml version="1.0" standalone="no"?>
<!DOCTYPE svg PUBLIC "-//W3C//DTD SVG 1.1//EN" "http://www.w3.org/Graphics/SVG/1.1/DTD/svg11.dtd" >
<svg xmlns="http://www.w3.org/2000/svg">
<metadata>
This is a custom SVG webfont generated by Font Squirrel.
Copyright   : Copyright c 2007 by Jos Buivenga All rights reserved
Foundry     : Jos Buivenga
</metadata>
<defs>
<font id="FontinSansBoldItalic" horiz-adv-x="983" >
<font-face units-per-em="2048" ascent="1548" descent="-500" />
<missing-glyph horiz-adv-x="552" />
<glyph unicode=" "  horiz-adv-x="552" />
<glyph unicode="&#x09;" horiz-adv-x="552" />
<glyph unicode="&#xa0;" horiz-adv-x="552" />
<glyph unicode="!" horiz-adv-x="550" d="M59 125q0 61 44 107.5t110 46.5t110 -46.5t44 -107.5q0 -63 -43 -107.5t-111 -44.5t-111 44.5t-43 107.5zM174 414l135 923l8 191l326 41l-287 -1178z" />
<glyph unicode="&#x22;" horiz-adv-x="768" d="M193 874l51 259v204l233 39l-86 -502h-198zM520 874l51 259v204l234 39l-86 -502h-199z" />
<glyph unicode="#" horiz-adv-x="1486" d="M2 356l37 193h297l98 319h-276l37 193h294l93 307h239l-94 -307h248l92 307h242l-95 -307h295l-59 -193h-289l-98 -319h293l-62 -193h-288l-107 -356h-242l109 356h-248l-106 -356h-242l109 356h-277zM575 549h248l99 319h-248z" />
<glyph unicode="$" horiz-adv-x="952" d="M2 86l33 211q150 -100 293 -117l86 395q-66 51 -99.5 81t-83 84.5t-72 113.5t-22.5 127q0 172 137.5 285.5t317.5 122.5l35 159h125l-37 -166q143 -16 243 -61l-92 -201l-26 10q-25 12 -74 29t-94 25l-88 -404q143 -111 192 -170q82 -104 82 -227q0 -168 -130 -283.5 t-320 -126.5l-35 -166h-125l37 175q-74 10 -144.5 35.5t-103.5 48.5zM414 1020q0 -78 65 -148l68 310q-59 -16 -96 -59.5t-37 -102.5zM457 193q135 43 135 167q0 59 -72 127z" />
<glyph unicode="%" horiz-adv-x="1761" d="M119 1038.5q0 135.5 100 234.5t234 99q135 0 237.5 -99t102.5 -234.5t-102.5 -234.5t-237.5 -99q-133 0 -233.5 99t-100.5 234.5zM156 0l1230 1409l195 -84l-1165 -1325h-260zM299 1040q0 -61 45 -112t111 -51q72 0 114.5 50t42.5 113q0 61 -48 107.5t-109 46.5 q-63 0 -109.5 -45.5t-46.5 -108.5zM969 307q0 135 100 234.5t234 99.5q135 0 237 -99.5t102 -234.5t-102 -234.5t-237 -99.5q-133 0 -233.5 99.5t-100.5 234.5zM1149 309q0 -61 45 -112.5t111 -51.5q72 0 114.5 50.5t42.5 113.5q0 61 -48 107.5t-109 46.5 q-63 0 -109.5 -45.5t-46.5 -108.5z" />
<glyph unicode="&#x26;" horiz-adv-x="1441" d="M84 449q0 152 85 286.5t232 194.5q-37 41 -62.5 111.5t-25.5 132.5q0 168 160 282.5t389 114.5q82 0 174 -25.5t144 -50.5l49 -27l-70 -221q-18 14 -48 33.5t-111.5 53.5t-151.5 34q-102 0 -180 -68.5t-78 -162.5q0 -109 84 -240l-4 -31q-137 -57 -222.5 -169.5 t-85.5 -235.5q0 -141 81 -212t196 -71q154 0 277.5 123t123.5 297q0 25 -2 37q-92 -27 -196 -27q-43 0 -56 4l74 199q338 8 537 211l43 -215q-66 -59 -142 -90q0 -334 -193.5 -539t-490.5 -205q-96 0 -187 28t-170 83t-126 149.5t-47 215.5z" />
<glyph unicode="'" horiz-adv-x="440" d="M193 874l51 259v204l233 39l-86 -502h-198z" />
<glyph unicode="(" horiz-adv-x="651" d="M63 207q0 338 164 688t443 522l172 -76q-240 -168 -388.5 -493.5t-148.5 -654.5q0 -328 146 -576q31 -51 34 -49l-190 -76q-10 10 -25.5 31.5t-55.5 91.5t-70.5 147.5t-55.5 198.5t-25 246z" />
<glyph unicode=")" horiz-adv-x="630" d="M-223 -432q240 168 388 493.5t148 655.5q0 328 -145 575q-31 51 -35 49l191 76q10 -10 25.5 -31.5t55 -91t70.5 -147.5t55.5 -199t24.5 -246q0 -338 -164 -688t-442 -522z" />
<glyph unicode="*" horiz-adv-x="823" d="M10 1104l82 168l221 -6l-166 258l211 14l93 -178l124 229l138 -133l-125 -190l303 6l-82 -168l-221 6l166 -258l-211 -14l-92 176l-125 -226l-133 134l120 188z" />
<glyph unicode="+" horiz-adv-x="985" d="M88 418v200h293v316l225 -62v-254h309l-51 -200h-258v-295h-225v295h-293z" />
<glyph unicode="," horiz-adv-x="512" d="M-16 -195q68 47 109.5 111t41.5 111q0 41 -13 60t-46 34v14q0 49 40 94t97 45q61 0 103 -40.5t42 -116.5q0 -84 -78.5 -192.5t-238.5 -207.5z" />
<glyph unicode="-" horiz-adv-x="638" d="M33 399v213h596l-58 -213h-538z" />
<glyph unicode="." horiz-adv-x="485" d="M51 125q0 61 44 107.5t109.5 46.5t109.5 -46.5t44 -107.5q0 -63 -43 -107.5t-110.5 -44.5t-110.5 44.5t-43 107.5z" />
<glyph unicode="/" horiz-adv-x="729" d="M-45 -500l577 1846h232l-584 -1846h-225z" />
<glyph unicode="0" d="M51 367q0 227 62.5 420.5t192.5 317.5t304 124q186 0 275.5 -116t89.5 -294q0 -168 -32 -315.5t-95.5 -268t-174 -191.5t-255.5 -71q-154 0 -260.5 97.5t-106.5 296.5zM307 356q0 -203 131 -202q78 0 136.5 70.5t88 178t44 211t14.5 191.5q0 240 -121 239 q-80 0 -140.5 -76.5t-92 -191t-46 -222.5t-14.5 -198z" />
<glyph unicode="1" horiz-adv-x="778" d="M12 0l35 197h195l129 729l-219 -66l-17 203l549 176l-188 -1042h245l-51 -197h-678z" />
<glyph unicode="2" d="M25 0v121q279 254 391 383q205 236 205 373q0 66 -39 106.5t-119 40.5q-20 0 -46 -4t-50.5 -10t-48 -14.5t-44 -15.5t-36 -13t-23.5 -11l-8 -4l-33 207q0 2 53.5 18.5t141.5 34t157 17.5q160 0 257.5 -88t97.5 -230q0 -250 -361 -575q-78 -72 -139 -117l446 2l-55 -221 h-747z" />
<glyph unicode="3" d="M-14 -16q14 -2 53 -2q78 0 159 15t168 50t142 106.5t55 168.5q0 160 -260 192l59 152q100 35 178 103.5t78 150.5q0 49 -40.5 77.5t-92.5 28.5q-33 0 -72.5 -8t-72.5 -18.5t-61.5 -21.5t-45.5 -20l-18 -6l-37 209q195 68 357 68q139 0 241.5 -75t102.5 -202 q0 -92 -69 -182t-179 -131q80 -20 138 -98t58 -193q0 -129 -66.5 -237.5t-172 -176t-231.5 -104.5t-253 -37h-98z" />
<glyph unicode="4" d="M10 340l735 889l211 -37l-137 -776h197l-80 -221h-156l-37 -211l-8 -189h-278l69 400h-508zM305 416h264l58 319l43 158l-101 -152l-207 -264z" />
<glyph unicode="5" d="M12 -14h27q88 0 168 17t156.5 56t122.5 117t46 186q0 106 -62 168t-167 62l-133 -8l131 614h641l-88 -221h-360l-41 -207q162 -14 255 -122.5t93 -258.5q0 -266 -191.5 -431t-484.5 -165h-92z" />
<glyph unicode="6" d="M57 463q0 162 52.5 325.5t143.5 298t229.5 218.5t295.5 84q143 0 285 -56l-78 -205q-111 59 -217 60q-127 0 -223 -95.5t-158 -248.5q104 43 199 43q143 0 239.5 -96.5t96.5 -280.5q0 -240 -139.5 -388.5t-370.5 -148.5q-176 0 -265.5 140.5t-89.5 349.5zM309 451 q0 -283 144 -283q96 0 153.5 95t57.5 214q0 109 -43 163t-109 54q-84 0 -180 -41q-23 -116 -23 -202z" />
<glyph unicode="7" d="M4 -188l694 1165h-530l-41 221h881l43 -51l-834 -1380z" />
<glyph unicode="8" d="M29 289q0 76 21.5 136t71.5 114.5t94 88.5t128 91q-150 150 -149 309q0 170 118.5 265.5t280.5 95.5q160 0 250 -81t90 -190q0 -190 -254 -370q190 -182 190 -349q0 -186 -138 -306t-318 -120q-166 0 -275.5 89.5t-109.5 226.5zM274 330q0 -68 44 -114t114 -46 q78 0 130 59.5t52 126.5q0 115 -139 236l-10 8l-21 -15q-12 -9 -44.5 -39t-58.5 -60.5t-46.5 -73.5t-20.5 -82zM438 1075q0 -43 21.5 -86t37 -60.5t56.5 -60.5q137 111 137 217q0 57 -32.5 94.5t-90.5 37.5q-61 0 -95 -43.5t-34 -98.5z" />
<glyph unicode="9" d="M-27 -182l72 198q104 -45 219 -45q268 0 391 383q-104 -43 -204 -43q-143 0 -239.5 96.5t-96.5 280.5q0 240 139 388.5t371 148.5q176 0 265 -140.5t89 -349.5q0 -162 -46 -327.5t-132 -309t-230.5 -234.5t-322.5 -91q-53 0 -122 10t-112 21.5t-41 13.5zM373 721 q0 -109 43 -163t108 -54q84 0 181 41q23 117 22 203q0 283 -143 282q-96 0 -153.5 -95t-57.5 -214z" />
<glyph unicode=":" horiz-adv-x="528" d="M68 111q0 59 42 101t101 42q55 0 96 -42t41 -101q0 -57 -41 -97.5t-96 -40.5q-59 0 -101 40.5t-42 97.5zM170 662q0 59 42 101t101 42q55 0 96.5 -42t41.5 -101q0 -57 -41 -97.5t-97 -40.5q-59 0 -101 40.5t-42 97.5z" />
<glyph unicode=";" horiz-adv-x="528" d="M-16 -195q68 47 109.5 111t41.5 111q0 41 -13 60t-46 34v14q0 49 40 94t97 45q61 0 103 -40.5t42 -116.5q0 -84 -78.5 -192.5t-238.5 -207.5zM172 662q0 59 42 101t101 42q55 0 96.5 -42t41.5 -101q0 -57 -41 -97.5t-97 -40.5q-59 0 -101 40.5t-42 97.5z" />
<glyph unicode="&#x3c;" horiz-adv-x="776" d="M59 506l551 500l92 -185l-313 -317l313 -314l-92 -184z" />
<glyph unicode="=" horiz-adv-x="1003" d="M88 219v193h815l-51 -193h-764zM88 598v193h836l-52 -193h-784z" />
<glyph unicode="&#x3e;" horiz-adv-x="776" d="M70 190l313 318l-313 313l92 185l551 -500l-551 -500z" />
<glyph unicode="?" horiz-adv-x="841" d="M111 125q0 61 44 107.5t109.5 46.5t109.5 -46.5t44 -107.5q0 -63 -43 -107.5t-110.5 -44.5t-110.5 44.5t-43 107.5zM174 485q0 59 51 136t124 149t144.5 143.5t123 145.5t51.5 129q0 70 -44 108.5t-116 38.5q-92 0 -221 -78l-31 234q152 66 305 65q160 0 266.5 -81.5 t106.5 -257.5q0 -82 -57.5 -174.5t-139.5 -174.5t-165 -159.5t-140 -155.5t-57 -139q0 -18 4 -35l-201 82q-4 10 -4 24z" />
<glyph unicode="@" horiz-adv-x="1847" d="M59 356q0 145 42 288.5t129 274t208 230.5t292 159.5t368 59.5q291 0 490.5 -199.5t199.5 -468.5q0 -322 -220 -548t-550 -248q-23 33 -40 83t-24 83l-4 34q-10 -14 -30.5 -34.5t-84 -54t-128.5 -33.5q-131 0 -199 92t-68 231q0 283 213 507t508 224q41 0 91.5 -10 t78.5 -20l31 -11l-51 -164q-111 -573 -111 -632q0 -23 4 -44.5t8 -31.5l2 -12q145 55 250 228t105 320q0 217 -142.5 373t-379.5 156q-309 0 -545 -240.5t-236 -544.5q0 -231 149.5 -417.5t422.5 -225.5l-144 -182q-301 72 -468 290t-167 488zM707 334q0 -145 94 -146 q35 0 72.5 13.5t58.5 27.5l20 13l123 614q-109 -16 -194.5 -98t-129.5 -193.5t-44 -230.5z" />
<glyph unicode="A" horiz-adv-x="1130" d="M-170 0l776 1352l203 41l197 -1137l65 -256h-291l-53 317h-461l-182 -317h-254zM383 528h313l-59 398l-2 80l-35 -80z" />
<glyph unicode="B" horiz-adv-x="1112" d="M72 0l225 1163l8 205l375 21q18 1 34 1q150 0 241 -82q101 -91 102 -227q0 -106 -66.5 -192t-152.5 -129q78 -43 129 -121t51 -166q0 -197 -159 -335t-431 -138h-356zM381 199h102q127 0 198 74.5t71 187.5q0 76 -57.5 125t-162.5 49h-69zM500 827h80q59 0 129 -14 q37 49 63.5 118.5t26.5 125.5q0 59 -40 95q-38 34 -102 34h-8l-80 -4z" />
<glyph unicode="C" horiz-adv-x="1263" d="M88 532q0 373 217 615t563 242q199 0 410 -129l12 -9l-127 -184l-16 12q-18 12 -50 30.5t-69 36t-85 31t-91 13.5q-199 0 -345.5 -185.5t-146.5 -451.5q0 -158 84 -264.5t242 -106.5q211 0 401 189l33 37l19 -248q-8 -8 -22.5 -20.5t-63.5 -44.5t-103.5 -56.5t-138.5 -45 t-170 -20.5q-248 0 -400.5 156.5t-152.5 402.5z" />
<glyph unicode="D" horiz-adv-x="1374" d="M78 0l225 1159l8 209h545q209 0 340 -148.5t131 -388.5q0 -225 -91 -413.5t-268 -303t-407 -114.5h-483zM383 199h203q186 0 326.5 178t140.5 430q0 147 -75 254.5t-208 107.5h-199z" />
<glyph unicode="E" horiz-adv-x="1034" d="M72 0l225 1159l8 209h739l-34 -203h-443l-73 -362h413l-76 -203h-376l-74 -397h496l-80 -203h-725z" />
<glyph unicode="F" horiz-adv-x="993" d="M72 0l225 1159l8 209h739l-36 -203h-443l-69 -362h413l-78 -203h-376l-82 -426l-8 -174h-293z" />
<glyph unicode="G" horiz-adv-x="1355" d="M88 532q0 373 217 615t563 242q199 0 410 -129l12 -9l-127 -184l-16 12q-18 12 -50 30.5t-69 36t-85 31t-91 13.5q-199 0 -345.5 -185.5t-146.5 -451.5q0 -158 84 -264.5t242 -106.5q98 0 186 39l54 275l-6 172h303l-117 -627q-37 0 -141 -23q-203 -45 -320 -45 q-250 0 -403.5 156.5t-153.5 402.5z" />
<glyph unicode="H" horiz-adv-x="1503" d="M72 0l227 1159l8 209h299l-114 -567h604l73 358l9 209h299l-234 -1194l-8 -174h-293l115 578h-604l-80 -404l-8 -174h-293z" />
<glyph unicode="I" horiz-adv-x="632" d="M72 0l227 1163l8 205h299l-233 -1194l-8 -174h-293z" />
<glyph unicode="J" horiz-adv-x="679" d="M-311 -387l61 227q55 -23 117 -22q86 0 157.5 83t94.5 205l203 1053l10 209h299l-246 -1270q-39 -203 -180.5 -354.5t-354.5 -151.5q-35 0 -75.5 5.5t-63.5 9.5z" />
<glyph unicode="K" horiz-adv-x="1241" d="M80 0l223 1157l12 211h295l-121 -629l424 484l93 145h342l-611 -653l426 -715h-303l-385 668l-96 -492l-10 -176h-289z" />
<glyph unicode="L" horiz-adv-x="911" d="M78 0l225 1159l8 209h299l-225 -1161h526l-92 -207h-741z" />
<glyph unicode="M" horiz-adv-x="1792" d="M72 0l217 1159l-8 209h188l420 -840l682 840h192l-233 -1194l-8 -174h-289l164 836l-109 -170l-479 -541l-299 547l-53 174l-123 -672l-8 -174h-254z" />
<glyph unicode="N" horiz-adv-x="1511" d="M72 0l221 1157l-21 211h222l526 -799l76 -157l133 747l8 209h270l-229 -1194l-18 -174h-168l-533 770l-76 164l-141 -760l-8 -174h-262z" />
<glyph unicode="O" horiz-adv-x="1349" d="M68 510q0 371 199.5 625t535.5 254q115 0 207 -35t148 -89.5t95 -126t54.5 -141t15.5 -137.5q0 -391 -209 -639t-534 -248q-242 0 -377 153t-135 384zM340 535q0 -164 72.5 -263.5t193.5 -99.5q123 0 227.5 99.5t161 248t56.5 301.5q0 166 -71 268.5t-198 102.5 q-160 0 -301 -176t-141 -481z" />
<glyph unicode="P" horiz-adv-x="1081" d="M59 0l226 1159l8 209h422q162 0 279.5 -102.5t117.5 -261.5q0 -233 -176 -377t-455 -144h-63l-58 -309l-8 -174h-293zM459 688h88q119 0 203 78t84 223q0 78 -51.5 129t-131.5 51h-96z" />
<glyph unicode="Q" horiz-adv-x="1390" d="M78 510q0 371 199.5 625t535.5 254q115 0 207 -35t148.5 -89.5t95.5 -126t54 -141t15 -137.5q0 -365 -183 -607.5t-480 -275.5q39 -14 141 -54t169 -59.5t118 -19.5q168 0 286 88l5 5l18 -246q-10 -8 -31.5 -20.5t-100.5 -32t-171 -19.5q-70 0 -160 29.5t-150.5 59.5 t-162 85t-127.5 70l-33 123q-188 35 -290.5 179t-102.5 345zM350 535q0 -164 73 -263.5t193 -99.5q123 0 227.5 99.5t161 248t56.5 301.5q0 166 -70.5 268.5t-197.5 102.5q-160 0 -301.5 -176t-141.5 -481z" />
<glyph unicode="R" horiz-adv-x="1140" d="M59 0l226 1159l8 209h422q162 0 279.5 -102.5t117.5 -261.5q0 -168 -95 -293t-261 -185l336 -526h-312l-278 483h-21h-63l-58 -309l-8 -174h-293zM459 688h88q119 0 203 78t84 223q0 78 -51.5 129t-131.5 51h-96z" />
<glyph unicode="S" horiz-adv-x="952" d="M2 86l33 211q20 -12 54 -32.5t122 -53.5t158 -33q82 0 152.5 46t70.5 136q0 51 -47 102.5t-113.5 101.5t-133.5 105.5t-114 137.5t-47 174q0 178 145.5 293t331.5 115q88 0 174 -16.5t130 -33.5l40 -18l-92 -201l-39 17q-37 16 -103.5 34.5t-121.5 18.5q-80 0 -134 -48 t-54 -122q0 -63 46 -121.5t110.5 -108t130 -102.5t111.5 -132t46 -173q0 -174 -139 -292t-338 -118q-94 0 -188.5 28t-143.5 56z" />
<glyph unicode="T" horiz-adv-x="1124" d="M82 1161l41 207h1083l-39 -207h-387l-192 -987l-8 -174h-293l225 1161h-430z" />
<glyph unicode="U" horiz-adv-x="1384" d="M142 440q3 88 24 195l94 524l10 209h301l-137 -747q-18 -100 -18 -179q0 -270 221 -270q129 0 229.5 104.5t128.5 253.5l121 629l10 209h269l-160 -823q-51 -260 -210 -416t-400 -156q-141 0 -239.5 39t-150 100.5t-73.5 150.5q-20 78 -20 156v21z" />
<glyph unicode="V" horiz-adv-x="1273" d="M102 1368h318l139 -827l10 -158l66 152l471 833h270l-809 -1395l-194 41l-189 1100l2 -4z" />
<glyph unicode="W" horiz-adv-x="1918" d="M104 1368h318l139 -827l10 -158l72 152l252 434l-25 145l2 -4l-84 258h318l139 -827l10 -158l66 152l420 833h272l-741 -1395l-213 41l-107 619l-383 -660l-194 41l-189 1100l2 -4z" />
<glyph unicode="X" horiz-adv-x="1112" d="M-109 0l525 702l-189 519l-100 147h328l141 -383l18 -70l41 70l269 383h276l-495 -678l249 -690h-286l-148 410l-18 73l-41 -69l-289 -414h-281z" />
<glyph unicode="Y" horiz-adv-x="1095" d="M106 1368h310l153 -455l17 -86l57 101l309 440h277l-563 -772l-82 -422l-9 -174h-292l116 594l-196 596z" />
<glyph unicode="Z" horiz-adv-x="1169" d="M-55 0v72l807 979l106 108h-692l104 209h1006v-72l-809 -977l-111 -112h760l-43 -207h-1128z" />
<glyph unicode="[" horiz-adv-x="589" d="M8 -141l320 1644h411l-34 -178h-177l-249 -1286h176l-37 -180h-410z" />
<glyph unicode="\" horiz-adv-x="729" d="M-12 1346h237l527 -1846h-222z" />
<glyph unicode="]" horiz-adv-x="569" d="M-86 -141l37 180h174l250 1286h-176l34 178h412l-321 -1644h-410z" />
<glyph unicode="^" horiz-adv-x="1298" d="M102 655l457 795h176l457 -795h-231l-316 576l-317 -576h-226z" />
<glyph unicode="_" horiz-adv-x="1009" d="M0 -133h1053l-68 -164h-985v164z" />
<glyph unicode="`" horiz-adv-x="692" d="M61 1483h306l211 -279l-168 -57z" />
<glyph unicode="a" horiz-adv-x="1067" d="M47 313q0 190 70.5 361.5t205 281t300.5 109.5q53 0 190 -13.5t201 -17.5l-137 -708q-13 -64 -13 -114q0 -36 6 -65q16 -68 84 -139l-254 -35q-41 31 -61.5 80t-15.5 76l2 14q-16 -18 -44 -46.5t-107 -76t-146 -47.5q-117 0 -199 88t-82 252zM309 344q0 -68 20.5 -118 t63.5 -50q45 0 103.5 40t93.5 81l37 41l102 545q-66 8 -92 8q-121 0 -224.5 -165t-103.5 -382z" />
<glyph unicode="b" horiz-adv-x="1085" d="M80 100l231 1217l6 209l295 30l-129 -630q16 16 46 38.5t104 61.5t131 39q117 0 194.5 -92t77.5 -258q0 -193 -60.5 -356.5t-193.5 -274.5t-315 -111q-51 0 -107.5 13.5t-88 27t-99 45t-92.5 41.5zM350 188q59 -33 129 -32q125 0 210 162.5t85 367.5q0 86 -27.5 127 t-66.5 41q-33 0 -91.5 -39t-101.5 -78l-43 -39z" />
<glyph unicode="c" horiz-adv-x="923" d="M47 408q0 301 155.5 479t377.5 178q72 0 158.5 -14.5t138.5 -28.5l51 -14l-64 -205q-158 72 -256 71q-139 0 -221 -126.5t-82 -278.5q0 -121 52.5 -202t164.5 -81q70 0 150 44t125 89l45 46l16 -236q-18 -18 -52 -44t-139.5 -69t-213.5 -43q-199 0 -302.5 124.5 t-103.5 310.5z" />
<glyph unicode="d" horiz-adv-x="1079" d="M51 330q0 197 62.5 359.5t201 269t330.5 106.5q57 0 139 -8l60 266v203l295 30l-240 -1230q-13 -64 -13 -114q0 -36 7 -65q16 -68 84 -139l-250 -35q-43 31 -62 82q-16 42 -16 77v13l2 17q-18 -20 -48 -52t-113.5 -84.5t-155.5 -52.5q-117 0 -200 95.5t-83 261.5z M313 358q0 -90 24.5 -137t59.5 -47q84 0 246 166l6 6l101 533q-90 8 -140 8q-74 0 -133 -54.5t-93 -137.5t-52.5 -171t-18.5 -166z" />
<glyph unicode="e" horiz-adv-x="940" d="M59 420q0 266 154 454.5t397 188.5q152 0 230 -68.5t78 -179.5q0 -131 -92.5 -217t-220.5 -119t-292 -39q0 -109 56.5 -180.5t148.5 -71.5q76 0 161 46.5t132 93.5l45 45l16 -242q-6 -6 -16 -17.5t-49 -38t-82 -47t-113.5 -38t-146.5 -17.5q-199 0 -302.5 127t-103.5 320 zM332 600q2 0 33.5 4t40 5t40 6.5t45 9.5t41 13t40 18.5t32 23.5t28.5 30.5t16 38t7 46.5q0 43 -21.5 65.5t-53.5 22.5q-94 0 -155.5 -83t-92.5 -200z" />
<glyph unicode="f" horiz-adv-x="647" d="M-223 -305q123 0 206 84t105 227l125 840h-129l29 188h127l20 125q35 209 145.5 307.5t258.5 98.5q66 0 131 -20.5t98 -41.5l33 -18l-111 -201q-72 61 -158 62q-49 0 -88 -39t-51 -117l-24 -156h264l-99 -188h-192l-125 -848q-33 -223 -164 -357.5t-334 -136.5z" />
<glyph unicode="g" horiz-adv-x="1034" d="M-121 -270l170 139q4 -6 13.5 -18.5t39 -43t64.5 -53t91 -42t118 -19.5q98 0 164.5 54t66.5 153q0 8 -5 61t-6 91v11q0 33 5 66q-6 -6 -15.5 -16.5t-39 -38t-59 -48t-72.5 -37t-84 -16.5q-117 0 -195 92.5t-78 258.5q0 197 63.5 360.5t204 272t332.5 108.5q76 0 161 -8 t132 -17l47 -10l-133 -668q-18 -96 -18 -194q0 -41 6 -135t6 -152q0 -170 -148.5 -274.5t-351.5 -104.5q-92 0 -175 23.5t-136 56.5t-93 67t-56 56zM330 352q0 -166 78 -166q37 0 87 39t83 78l30 39l103 539q-70 8 -117 8q-106 0 -185 -168t-79 -369z" />
<glyph unicode="h" horiz-adv-x="1120" d="M55 0l256 1321l11 205l290 30l-108 -548l-31 -95q53 51 145.5 101.5t194.5 50.5q147 0 200 -95q34 -61 33 -144q0 -45 -10 -97l-108 -559l-13 -170h-276l127 670q11 53 11 90q0 84 -58 84q-49 0 -118 -39t-114 -78l-45 -39l-100 -514l-10 -174h-277z" />
<glyph unicode="i" horiz-adv-x="577" d="M55 0l160 827l12 207l289 31l-174 -889l-10 -176h-277zM293 1337q0 59 42 101.5t101 42.5q55 0 96 -42t41 -102q0 -57 -40.5 -97t-96.5 -40q-59 0 -101 40t-42 97z" />
<glyph unicode="j" horiz-adv-x="589" d="M-246 -289q264 0 316 271l161 841v-2l11 207l290 31l-210 -1086q-41 -213 -179.5 -341t-326.5 -130zM313 1337q0 59 42 101.5t102 42.5q55 0 96 -42t41 -102q0 -57 -41 -97t-96 -40q-59 0 -101.5 40t-42.5 97z" />
<glyph unicode="k" horiz-adv-x="1003" d="M51 0l256 1321l10 205l291 30l-184 -946l188 142q102 80 103 112q0 16 -19.5 31.5t-40.5 22.5l-20 8l211 137q6 -2 15 -7t33 -22.5t42 -37t33.5 -50.5t15.5 -63q0 -145 -194 -250l-134 -72l310 -528l-250 -60l-307 566l-72 -365l-10 -174h-277z" />
<glyph unicode="l" horiz-adv-x="542" d="M51 0l256 1321l10 205l291 30l-270 -1382l-10 -174h-277z" />
<glyph unicode="m" horiz-adv-x="1722" d="M55 0l162 823l-18 176l293 64l-23 -170q6 6 17.5 18.5t48 42t75.5 52t95.5 41t109.5 18.5q205 0 229 -188q29 31 65 63.5t126 78.5t174 46q147 0 200 -95q34 -61 33 -144q0 -45 -10 -97l-108 -559l-13 -170h-276l127 670q11 53 11 90q0 84 -58 84q-104 0 -287 -164 l-98 -510l-12 -170h-277l127 670q11 53 11 90q0 84 -58 84q-49 0 -117.5 -39t-114.5 -78l-45 -39l-100 -514l-14 -174h-275z" />
<glyph unicode="n" horiz-adv-x="1132" d="M55 0l162 823l-18 176l293 64l-23 -170q6 6 17.5 18.5t48 42t75.5 52t95.5 41t109.5 18.5q147 0 200 -95q34 -61 33 -144q0 -45 -10 -97l-108 -559l-12 -170h-277l127 670q11 53 11 90q0 84 -58 84q-49 0 -117.5 -39t-114.5 -78l-45 -39l-100 -514l-14 -174h-275z" />
<glyph unicode="o" horiz-adv-x="1038" d="M47 383q0 303 160 492.5t418 189.5q158 0 260 -108.5t102 -303.5q0 -283 -156.5 -481.5t-416.5 -198.5q-104 0 -181 40t-115 104.5t-54.5 130t-16.5 135.5zM303 420q0 -121 38 -190.5t114 -69.5q100 0 185 123t85 342q0 111 -41 183.5t-111 72.5q-113 0 -191.5 -145.5 t-78.5 -315.5z" />
<glyph unicode="p" horiz-adv-x="1089" d="M-39 -492l256 1321l-16 172l291 64l-25 -168q14 18 41 46t105.5 75t152.5 47q113 0 189.5 -91t76.5 -259q0 -197 -59.5 -361t-192.5 -272.5t-319 -108.5q-20 0 -58 6.5t-67 12.5l-27 6l-59 -315l-10 -175h-279zM344 182q68 -20 117 -20q139 0 224 155.5t85 368.5 q0 166 -86 166q-78 0 -238 -164l-4 -4z" />
<glyph unicode="q" horiz-adv-x="1093" d="M63 330q0 197 63.5 359.5t203 269t332.5 106.5q63 0 191 -13.5t198 -13.5l-254 -1306l-11 -224h-288l116 594q-14 -14 -40.5 -35.5t-97 -57.5t-128.5 -36q-117 0 -201 95.5t-84 261.5zM326 358q0 -90 25.5 -136t62.5 -46q82 0 241 162l7 6l102 535q-14 0 -48 3t-63.5 4 t-54.5 1q-106 0 -189 -165t-83 -364z" />
<glyph unicode="r" horiz-adv-x="821" d="M55 0l162 823l-16 185l288 57l-32 -219q4 8 14 23.5t40 53.5t62.5 66.5t80.5 52t98 23.5q35 0 69.5 -8t50.5 -17l17 -6l-90 -227q-57 25 -109 24q-84 0 -175 -129t-118 -264l-51 -264l-10 -174h-281z" />
<glyph unicode="s" horiz-adv-x="829" d="M31 94l16 225l10 -8q10 -8 28.5 -22.5t42.5 -29.5t52.5 -31.5t57 -31t60.5 -22.5t58 -8q53 0 99.5 31.5t46.5 89.5q0 45 -39 83t-95.5 69.5t-111.5 70.5t-94 102.5t-39 147.5q0 135 123 220t280 85q143 0 301 -57l-71 -195l-35 16q-37 16 -100.5 35t-119 19t-90 -30 t-34.5 -69q0 -47 39 -87t94 -72.5t111.5 -70.5t95.5 -101.5t39 -145.5q0 -154 -120 -244t-276 -90q-90 0 -172 30t-118 60z" />
<glyph unicode="t" horiz-adv-x="796" d="M102 846l39 188h121l37 180l283 33l-62 -213h314l-103 -188h-250l-102 -551q-2 -14 -3 -26q0 -28 14 -43q19 -22 46 -21q45 0 110.5 32.5t108.5 65.5l43 33v-238q-18 -14 -50 -34.5t-120 -55.5t-163 -35q-111 0 -183.5 60.5t-72.5 185.5l116 627h-123z" />
<glyph unicode="u" horiz-adv-x="1140" d="M98 305l107 559l10 170h279l-127 -669q-10 -49 -11 -85q0 -90 68 -90q86 0 264 170l6 7l97 493l14 174h274l-137 -708q-13 -64 -13 -114q0 -36 7 -65q16 -68 84 -139l-250 -35q-43 31 -62 82q-16 42 -16 77v13l2 17q-6 -8 -17 -20.5t-50 -45.5t-79 -57.5t-100.5 -45 t-119.5 -20.5q-145 0 -202 93q-37 61 -37 146q-1 43 9 93z" />
<glyph unicode="v" horiz-adv-x="970" d="M70 1026l284 39l92 -625l7 -174l86 174l159 262q47 76 47 154q0 33 -14 76t-26 67l-15 27l244 39q47 -92 47 -178q0 -117 -100 -275l-404 -639l-219 41l-125 820z" />
<glyph unicode="w" horiz-adv-x="1599" d="M70 1026l284 39l92 -625l7 -174l86 174l159 262q47 76 47 154q0 33 -14 76t-26 67l-15 27l268 39q35 -70 46 -143l71 -482l6 -174l86 174l160 262q47 76 47 154q0 33 -13 76t-28 67l-14 27l268 39q47 -92 47 -178q0 -117 -100 -275l-416 -639l-231 41l-74 484l-324 -525 l-231 41l-125 820z" />
<glyph unicode="x" horiz-adv-x="1003" d="M-80 0l457 520l-146 328l-120 178l286 37l154 -367l29 41l104 111q29 36 29 73q0 40 -19 74l-16 31l264 37q4 -6 9 -17.5t12 -47.5q4 -24 4 -48q0 -12 -1 -24q-3 -37 -28 -89.5t-72 -101.5l-219 -227l238 -508h-275l-125 281l-16 49l-33 -51l-235 -279h-281z" />
<glyph unicode="y" horiz-adv-x="995" d="M-227 -248q80 -31 149 -31q143 0 258 166l92 131l-24 58l-115 758l-63 192l284 39l92 -625l7 -174l86 174l159 262q47 76 47 154q0 33 -14 76t-26 67l-15 27l268 39q47 -92 48 -178q0 -117 -101 -275l-514 -817q-92 -147 -219 -220t-252 -73l-135 25z" />
<glyph unicode="z" horiz-adv-x="958" d="M-35 0v59l543 705l74 82h-504l92 188h795v-59l-543 -707l-72 -80h570l-37 -188h-918z" />
<glyph unicode="{" horiz-adv-x="616" d="M53 539l29 147q45 0 79 17.5t51 45t25.5 47t10.5 33.5l76 392q33 160 161.5 242.5t305.5 82.5l-25 -168q-164 0 -197 -164l-73 -383q-12 -66 -52.5 -120t-72.5 -76l-33 -23q10 -8 25.5 -24.5t36 -72.5t10.5 -122l-88 -557q-33 -164 135 -164l-25 -168q-182 0 -282.5 83 t-69.5 243l88 565q0 16 2 48t-29 64t-88 32z" />
<glyph unicode="|" horiz-adv-x="485" d="M129 -520v2068h227v-2068h-227z" />
<glyph unicode="}" horiz-adv-x="616" d="M-158 -496l25 168q168 0 201 164l108 557q27 131 143 213l9 6q-10 8 -26.5 24.5t-37 73t-8.5 121.5l74 383q33 164 -135 164l24 168q182 0 283.5 -83t68.5 -242l-75 -392q2 -16 0 -47.5t28.5 -63.5t87.5 -32l-28 -147q-131 0 -164 -144l-109 -565q-33 -160 -161 -243 t-308 -83z" />
<glyph unicode="~" horiz-adv-x="1204" d="M70 594q152 131 315 131q102 0 238.5 -57.5t197.5 -57.5q109 0 226 103l92 -183q-59 -61 -146.5 -99t-179.5 -38q-88 0 -228.5 57.5t-217.5 57.5q-129 0 -213 -94z" />
<glyph unicode="&#xa1;" horiz-adv-x="540" d="M-27 -227l287 1177l182 -22l-135 -924l-8 -190zM250 1217q0 63 43 107t110.5 44t110.5 -44t43 -107q0 -61 -44 -107.5t-109.5 -46.5t-109.5 46.5t-44 107.5z" />
<glyph unicode="&#xa2;" horiz-adv-x="923" d="M47 408q0 301 155.5 479t377.5 178h22l33 164h125l-35 -176q49 -8 99 -19.5t77 -17.5l27 -8l-64 -205q-90 39 -176 59l-129 -674q66 10 136.5 54.5t107.5 83.5l39 39l16 -236q-14 -14 -43 -36.5t-118 -63.5t-179 -52l-39 -200h-125l39 200q-170 18 -258 138.5t-88 292.5z M305 469q0 -213 131 -266l129 667q-121 -20 -190.5 -142t-69.5 -259z" />
<glyph unicode="&#xa3;" horiz-adv-x="1124" d="M-131 -209q4 0 62.5 100.5t134 273.5t106.5 322l10 52h-125l35 180h125l78 397q41 211 193.5 319.5t355.5 108.5q104 0 198.5 -32.5t137.5 -65.5l41 -33l-105 -184q-14 14 -38.5 34.5t-100.5 55.5t-148 35q-98 0 -172.5 -55.5t-97.5 -165.5l-82 -414h402l-84 -180h-353 l-12 -70q-16 -98 -66.5 -220t-89.5 -194l-36 -71h788l-74 -193h-1083z" />
<glyph unicode="&#xa5;" horiz-adv-x="1095" d="M70 225l32 172h260l33 162h-260l33 172h186l-145 459l-98 178h311l151 -467l13 -80l45 80l332 467h274l-479 -637h231l-69 -172h-258l-33 -162h274l-69 -172h-238l-10 -49l-11 -176h-288l43 225h-260z" />
<glyph unicode="&#xa7;" horiz-adv-x="860" d="M-51 -211l39 199q92 -135 217 -156v1368q0 156 130 251t304 95q66 0 122 -16.5t89 -39t57.5 -45t34.5 -38.5l8 -16l-39 -199q-94 135 -217 156v-1334q0 -172 -131 -276.5t-305 -104.5q-199 0 -295 134zM399 -145q10 4 27.5 14t45.5 42t28 69v1351q-10 -6 -27.5 -16 t-45.5 -44t-28 -71v-1345z" />
<glyph unicode="&#xa8;" horiz-adv-x="786" d="M94 1304.5q0 51.5 34 89.5t81 38t81 -38t34 -89.5t-34 -88t-81 -36.5t-81 36.5t-34 88zM471 1305q0 53 34 90t81 37t80.5 -38t33.5 -89.5t-33.5 -88t-80.5 -36.5t-81 37t-34 88z" />
<glyph unicode="&#xa9;" horiz-adv-x="1638" d="M102 659q0 328 207 518.5t561 190.5q291 0 478.5 -190.5t187.5 -481.5q0 -332 -200.5 -527.5t-549.5 -195.5q-295 0 -489.5 196.5t-194.5 489.5zM295 684q0 -254 145.5 -402.5t390.5 -148.5q215 0 366 148.5t151 388.5q0 244 -145.5 393t-375.5 149q-225 0 -378.5 -143 t-153.5 -385zM455 664q0 174 100 291.5t283 117.5q66 0 133 -26.5t102 -51.5l33 -26l-76 -148q-96 88 -196 88q-74 0 -122 -63.5t-48 -159.5q0 -94 50 -162.5t130 -68.5q111 2 235 100l21 -162q-12 -12 -36 -29.5t-103.5 -48t-167.5 -30.5q-158 -2 -248 110.5t-90 268.5z " />
<glyph unicode="&#xaa;" horiz-adv-x="860" d="M100 823q0 225 126 395.5t319 170.5q18 0 128.5 -9.5t176.5 -13.5q-113 -586 -113 -618q0 -82 66 -154l-207 -29q-57 41 -64 121q-10 -12 -28.5 -32.5t-73.5 -53.5t-106 -33q-94 0 -159 65.5t-65 190.5zM322 846q0 -47 14 -85t41 -38q37 0 77 29.5t60 58.5l21 31l77 407 q-33 6 -57 6q-86 0 -159.5 -123.5t-73.5 -285.5z" />
<glyph unicode="&#xab;" horiz-adv-x="1351" d="M51 508l629 500l80 -189l-395 -317l264 -309l-148 -185zM602 508l629 500l80 -189l-396 -317l265 -309l-148 -185z" />
<glyph unicode="&#xac;" horiz-adv-x="1095" />
<glyph unicode="&#xad;" horiz-adv-x="638" d="M33 399v213h596l-58 -213h-538z" />
<glyph unicode="&#xae;" horiz-adv-x="1638" d="M102 659q0 328 207 518.5t561 190.5q291 0 478.5 -190.5t187.5 -481.5q0 -332 -200.5 -527.5t-549.5 -195.5q-295 0 -489.5 196.5t-194.5 489.5zM295 684q0 -254 145.5 -402.5t390.5 -148.5q215 0 366 148.5t151 388.5q0 244 -145.5 393t-375.5 149q-225 0 -378.5 -143 t-153.5 -385zM545 1061h254q121 0 206 -63.5t85 -178.5q0 -59 -40 -119.5t-104 -89.5l250 -291h-248l-182 269v-162q0 -12 14 -107h-221v611zM766 686h8q53 0 92 35t39 98q0 115 -131 115h-8v-248z" />
<glyph unicode="&#xaf;" horiz-adv-x="686" d="M68 1161l18 201h561l-72 -201h-507z" />
<glyph unicode="&#xb0;" horiz-adv-x="837" d="M57 1179.5q0 139.5 102.5 241t239.5 101.5q139 0 244 -101.5t105 -241t-104.5 -240.5t-244.5 -101q-137 0 -239.5 101t-102.5 240.5zM242 1181.5q0 -63.5 47 -115.5t112 -52q72 0 117 51t45 117q0 63 -49 110t-113 47q-66 0 -112.5 -47t-46.5 -110.5z" />
<glyph unicode="&#xb1;" horiz-adv-x="985" d="M88 561v201h293v276l225 -61v-215h309l-51 -201h-258v-233h-225v233h-293zM137 0v213h721l-57 -213h-664z" />
<glyph unicode="&#xb2;" horiz-adv-x="700" d="M53 586v96l27 23l40 33q13 11 45 40t52.5 48.5t51 50t51 55t44 54.5t38 55.5t23.5 51t9 48.5q0 63 -61 63q-66 0 -156 -61l-57 147q123 98 282 99q98 0 165 -49.5t67 -143.5q0 -180 -316 -440h287l-47 -170h-545z" />
<glyph unicode="&#xb3;" horiz-adv-x="718" d="M53 729q66 -8 107 -8q66 0 123 12t102 47t45 88q0 72 -180 72l31 94q55 23 83.5 37t58.5 46t30 73q0 53 -70 53q-37 0 -78 -14.5t-63 -28.5l-25 -14l-35 125q111 76 264 75q98 0 168 -44t70 -119q0 -23 -2 -33q-8 -45 -51 -89t-99 -73q53 -8 87 -55t34 -107 q0 -104 -79.5 -173.5t-177 -93.5t-201.5 -24q-66 0 -123 11z" />
<glyph unicode="&#xb4;" horiz-adv-x="692" d="M113 1204l260 279h305l-410 -336z" />
<glyph unicode="&#xb5;" horiz-adv-x="1062" />
<glyph unicode="&#x3bc;" horiz-adv-x="1062" />
<glyph unicode="&#xb6;" horiz-adv-x="1355" d="M96 645q0 285 234.5 504t537.5 219h154l-363 -1868h-194l125 650q-217 16 -355.5 153t-138.5 342zM793 -500l362 1868h195l-363 -1868h-194z" />
<glyph unicode="&#xb7;" horiz-adv-x="528" d="M104 502q0 61 44.5 107t110 46t109.5 -46t44 -107q0 -63 -43 -107.5t-111 -44.5t-111 44.5t-43 107.5z" />
<glyph unicode="&#xb8;" horiz-adv-x="823" d="M117 -401l73 141q55 -63 168 -64q80 0 80 56q0 33 -77.5 85t-94.5 83l35 106h125q20 -29 78.5 -70.5t99.5 -85t41 -94.5q0 -119 -89 -178t-208 -59q-127 0 -231 80z" />
<glyph unicode="&#xb9;" horiz-adv-x="673" d="M104 584l27 145h154l73 418l-118 -35l-31 139l414 125l-115 -647h156l-48 -145h-512z" />
<glyph unicode="&#xba;" horiz-adv-x="935" d="M156 877q0 227 122.5 369.5t323.5 142.5q123 0 204 -81t81 -229q0 -213 -121 -362.5t-322 -149.5q-156 0 -222 95.5t-66 214.5zM373 903q0 -193 102 -192q70 0 130.5 92t60.5 254q0 82 -28 136t-75 54q-80 0 -135 -107.5t-55 -236.5z" />
<glyph unicode="&#xbb;" horiz-adv-x="1351" d="M41 197l395 317l-264 309l147 185l431 -500l-629 -500zM592 197l395 317l-264 309l147 185l430 -500l-628 -500z" />
<glyph unicode="&#xbc;" horiz-adv-x="1536" d="M68 588l26 145h154l74 418l-119 -35l-31 139l414 125l-115 -647h156l-47 -145h-512zM397 182l707 1026l168 -63l-666 -963h-209zM762 162l475 545l174 -54l-76 -430h144l-68 -162h-104l-11 -53l-6 -129h-235l32 182h-321zM942 219l45 4h131l27 178l18 76l-49 -76 l-125 -145z" />
<glyph unicode="&#xbd;" horiz-adv-x="1515" d="M68 584l26 145h154l74 418l-119 -35l-31 139l414 125l-115 -647h156l-47 -145h-512zM377 182l706 1026l168 -63l-665 -963h-209zM854 -25l27 23l40 34q13 11 44.5 39.5t52 48t51.5 50.5t51.5 55.5t44 54t38 55t23.5 51.5t9 48q0 63 -61 64q-66 0 -156 -62l-57 148 q123 98 282 98q98 0 165 -49t67 -144q0 -180 -316 -440h287l-47 -170h-545v96z" />
<glyph unicode="&#xbe;" horiz-adv-x="1492" d="M53 729q66 -8 107 -8q66 0 123 12t102 47t45 88q0 72 -180 72l31 94q55 23 83.5 37t58.5 46t30 73q0 53 -70 53q-37 0 -78 -14.5t-63 -28.5l-25 -14l-35 125q111 76 264 75q98 0 168 -44t70 -119q0 -23 -2 -33q-8 -45 -51 -89t-99 -73q53 -8 87 -55t34 -107 q0 -104 -79.5 -173.5t-177 -93.5t-201.5 -24q-66 0 -123 11zM354 182l707 1026l168 -63l-666 -963h-209zM719 162l475 545l174 -54l-76 -430h144l-68 -162h-104l-11 -53l-6 -129h-235l32 182h-321zM899 219l45 4h131l27 178l18 76l-49 -76l-125 -145z" />
<glyph unicode="&#xbf;" horiz-adv-x="849" d="M6 131q0 82 57.5 174t140.5 174t165 160t139 155.5t57 139.5q0 18 -4 35l201 -82q4 -10 4 -25q0 -59 -51 -136t-123 -148.5t-144.5 -143.5t-124 -145.5t-51.5 -128.5q0 -70 44 -109t116 -39q92 0 221 78l31 -233q-152 -66 -305 -66q-160 0 -266.5 82t-106.5 258z M522 1223q0 63 43 107t110.5 44t110.5 -44t43 -107q0 -61 -44 -107.5t-109.5 -46.5t-109.5 46.5t-44 107.5z" />
<glyph unicode="&#xc0;" horiz-adv-x="1130" d="M-170 0l776 1352l203 41l197 -1137l65 -256h-291l-53 317h-461l-182 -317h-254zM356 1792h306l210 -279l-167 -57zM383 528h313l-59 398l-2 80l-35 -80z" />
<glyph unicode="&#xc1;" horiz-adv-x="1130" d="M-170 0l776 1352l203 41l197 -1137l65 -256h-291l-53 317h-461l-182 -317h-254zM383 528h313l-59 398l-2 80l-35 -80zM514 1513l260 279h305l-409 -336z" />
<glyph unicode="&#xc2;" horiz-adv-x="1130" d="M-170 0l776 1352l203 41l197 -1137l65 -256h-291l-53 317h-461l-182 -317h-254zM344 1520l258 272h209l209 -272l-166 -62l-162 191l-194 -191zM383 528h313l-59 398l-2 80l-35 -80z" />
<glyph unicode="&#xc3;" horiz-adv-x="1130" d="M-170 0l776 1352l203 41l197 -1137l65 -256h-291l-53 317h-461l-182 -317h-254zM330 1552q2 6 7 16.5t24.5 36t43 45t66.5 36t92 16.5q59 0 136 -36t104 -36q98 0 133 72l111 -80q-2 -6 -6.5 -15.5t-20.5 -35t-40 -45t-67 -34.5t-94 -15q-72 0 -149.5 34.5t-98.5 34.5 q-90 -2 -135 -69zM383 528h313l-59 398l-2 80l-35 -80z" />
<glyph unicode="&#xc4;" horiz-adv-x="1130" d="M-170 0l776 1352l203 41l197 -1137l65 -256h-291l-53 317h-461l-182 -317h-254zM383 528h313l-59 398l-2 80l-35 -80zM389 1614q0 51 34 89t81 38t80.5 -38t33.5 -89t-33.5 -88t-80.5 -37t-81 37t-34 88zM766 1614q0 53 34 90t81 37t80.5 -38t33.5 -89t-33.5 -88 t-80.5 -37t-81 37t-34 88z" />
<glyph unicode="&#xc5;" horiz-adv-x="1130" d="M-170 0l776 1352l203 41l197 -1137l65 -256h-291l-53 317h-461l-182 -317h-254zM383 528h313l-59 398l-2 80l-35 -80zM510 1620q0 74 54 127t128 53t130.5 -53t56.5 -127t-56.5 -127t-130.5 -53t-128 53t-54 127zM606 1622q0 -35 25.5 -65.5t62.5 -30.5q41 0 64.5 29.5 t23.5 66.5q0 35 -26.5 61.5t-61.5 26.5q-37 0 -62.5 -26.5t-25.5 -61.5z" />
<glyph unicode="&#xc6;" horiz-adv-x="1611" d="M-162 0l930 1368h854l-39 -203h-489l-70 -362h432l-90 -203h-381l-78 -397h516l-90 -203h-731l64 336h-353l-223 -336h-252zM442 528h263l129 602z" />
<glyph unicode="&#xc7;" horiz-adv-x="1257" d="M119 532q0 373 217 615t563 242q199 0 410 -129l12 -9l-127 -184l-18 12q-16 12 -48 30.5t-69 36t-85 31t-91 13.5q-199 0 -345.5 -185.5t-146.5 -451.5q0 -158 84 -264.5t242 -106.5q211 0 401 189l33 37l18 -248q-6 -6 -19 -17.5t-58 -41t-93.5 -53t-124 -45 t-153.5 -28.5q16 -16 75.5 -58t88 -79t28.5 -82q0 -119 -89 -178t-208 -59q-127 0 -231 80l74 141q55 -63 168 -64q80 0 80 56q0 33 -78 85t-94 83l26 84q-203 33 -322.5 182t-119.5 366z" />
<glyph unicode="&#xc8;" horiz-adv-x="1034" d="M72 0l225 1159l8 209h739l-34 -203h-443l-73 -362h413l-76 -203h-376l-74 -397h496l-80 -203h-725zM297 1792h305l211 -279l-168 -57z" />
<glyph unicode="&#xc9;" horiz-adv-x="1034" d="M72 0l225 1159l8 209h739l-34 -203h-443l-73 -362h413l-76 -203h-376l-74 -397h496l-80 -203h-725zM455 1513l260 279h305l-410 -336z" />
<glyph unicode="&#xca;" horiz-adv-x="1034" d="M72 0l225 1159l8 209h739l-34 -203h-443l-73 -362h413l-76 -203h-376l-74 -397h496l-80 -203h-725zM285 1520l258 272h209l209 -272l-166 -62l-162 191l-195 -191z" />
<glyph unicode="&#xcb;" horiz-adv-x="1034" d="M72 0l225 1159l8 209h739l-34 -203h-443l-73 -362h413l-76 -203h-376l-74 -397h496l-80 -203h-725zM330 1614q0 51 33.5 89t81 38t81 -38t33.5 -89t-33.5 -88t-81 -37t-81 37t-33.5 88zM707 1614q0 53 33.5 90t80.5 37t81 -38t34 -89t-34 -88t-81 -37t-80.5 37t-33.5 88z " />
<glyph unicode="&#xcc;" horiz-adv-x="632" d="M72 0l227 1163l8 205h299l-233 -1194l-8 -174h-293zM104 1792h306l211 -279l-168 -57z" />
<glyph unicode="&#xcd;" horiz-adv-x="632" d="M72 0l227 1163l8 205h299l-233 -1194l-8 -174h-293zM262 1513l260 279h305l-409 -336z" />
<glyph unicode="&#xce;" horiz-adv-x="632" d="M72 0l227 1163l8 205h299l-233 -1194l-8 -174h-293zM92 1520l258 272h209l209 -272l-166 -62l-162 191l-194 -191z" />
<glyph unicode="&#xcf;" horiz-adv-x="632" d="M72 0l227 1163l8 205h299l-233 -1194l-8 -174h-293zM137 1614q0 51 34 89t81 38t81 -38t34 -89t-34 -88t-81 -37t-81 37t-34 88zM514 1614q0 53 34 90t81 37t80.5 -38t33.5 -89t-33.5 -88t-80.5 -37t-81 37t-34 88z" />
<glyph unicode="&#xd0;" horiz-adv-x="1374" d="M57 590l35 213h141l70 356l8 209h545q209 0 340 -148.5t131 -388.5q0 -225 -91 -413.5t-268 -303t-407 -114.5h-483l115 590h-136zM383 199h203q186 0 326.5 178t140.5 430q0 147 -75 254.5t-208 107.5h-199l-71 -366h225l-86 -213h-180z" />
<glyph unicode="&#xd1;" horiz-adv-x="1511" d="M72 0l221 1157l-21 211h222l526 -799l76 -157l133 747l8 209h270l-229 -1194l-18 -174h-168l-533 770l-76 164l-141 -760l-8 -174h-262zM535 1552q2 6 7 16.5t24.5 36t43 45t66.5 36t92 16.5q59 0 136 -36t104 -36q98 0 133 72l110 -80q-2 -6 -6 -15.5t-20.5 -35t-40 -45 t-66.5 -34.5t-94 -15q-72 0 -149.5 34.5t-98.5 34.5q-90 -2 -135 -69z" />
<glyph unicode="&#xd2;" horiz-adv-x="1349" d="M68 510q0 371 199.5 625t535.5 254q115 0 207 -35t148 -89.5t95 -126t54.5 -141t15.5 -137.5q0 -391 -209 -639t-534 -248q-242 0 -377 153t-135 384zM340 535q0 -164 72.5 -263.5t193.5 -99.5q123 0 227.5 99.5t161 248t56.5 301.5q0 166 -71 268.5t-198 102.5 q-160 0 -301 -176t-141 -481zM469 1792h305l211 -279l-168 -57z" />
<glyph unicode="&#xd3;" horiz-adv-x="1349" d="M68 510q0 371 199.5 625t535.5 254q115 0 207 -35t148 -89.5t95 -126t54.5 -141t15.5 -137.5q0 -391 -209 -639t-534 -248q-242 0 -377 153t-135 384zM340 535q0 -164 72.5 -263.5t193.5 -99.5q123 0 227.5 99.5t161 248t56.5 301.5q0 166 -71 268.5t-198 102.5 q-160 0 -301 -176t-141 -481zM627 1513l260 279h305l-410 -336z" />
<glyph unicode="&#xd4;" horiz-adv-x="1349" d="M68 510q0 371 199.5 625t535.5 254q115 0 207 -35t148 -89.5t95 -126t54.5 -141t15.5 -137.5q0 -391 -209 -639t-534 -248q-242 0 -377 153t-135 384zM340 535q0 -164 72.5 -263.5t193.5 -99.5q123 0 227.5 99.5t161 248t56.5 301.5q0 166 -71 268.5t-198 102.5 q-160 0 -301 -176t-141 -481zM457 1520l258 272h209l209 -272l-166 -62l-162 191l-195 -191z" />
<glyph unicode="&#xd5;" horiz-adv-x="1349" d="M68 510q0 371 199.5 625t535.5 254q115 0 207 -35t148 -89.5t95 -126t54.5 -141t15.5 -137.5q0 -391 -209 -639t-534 -248q-242 0 -377 153t-135 384zM340 535q0 -164 72.5 -263.5t193.5 -99.5q123 0 227.5 99.5t161 248t56.5 301.5q0 166 -71 268.5t-198 102.5 q-160 0 -301 -176t-141 -481zM442 1552q2 6 7.5 16.5t25 36t43 45t66.5 36t92 16.5q59 0 136 -36t103 -36q98 0 134 72l110 -80q-2 -6 -6 -15.5t-20.5 -35t-40 -45t-66.5 -34.5t-94 -15q-72 0 -149.5 34.5t-98.5 34.5q-90 -2 -135 -69z" />
<glyph unicode="&#xd6;" horiz-adv-x="1349" d="M68 510q0 371 199.5 625t535.5 254q115 0 207 -35t148 -89.5t95 -126t54.5 -141t15.5 -137.5q0 -391 -209 -639t-534 -248q-242 0 -377 153t-135 384zM340 535q0 -164 72.5 -263.5t193.5 -99.5q123 0 227.5 99.5t161 248t56.5 301.5q0 166 -71 268.5t-198 102.5 q-160 0 -301 -176t-141 -481zM502 1614q0 51 33.5 89t81 38t81 -38t33.5 -89t-33.5 -88t-81 -37t-81 37t-33.5 88zM879 1614q0 53 33.5 90t80.5 37t81 -38t34 -89t-34 -88t-81 -37t-80.5 37t-33.5 88z" />
<glyph unicode="&#xd7;" horiz-adv-x="899" d="M49 766l184 104l209 -213l256 258l109 -192l-213 -211l240 -242l-144 -143l-241 240l-236 -236l-145 148l235 237z" />
<glyph unicode="&#xd8;" horiz-adv-x="1349" d="M68 510q0 371 199.5 625t535.5 254q121 0 215 -39l78 125l145 -37l-100 -160q92 -78 137 -192.5t45 -225.5q0 -391 -209 -639t-534 -248q-125 0 -226 45l-92 -147l-127 47l105 170q-172 154 -172 422zM340 535q0 -129 43 -216l518 842q-57 31 -119 31q-160 0 -301 -176 t-141 -481zM475 211q53 -39 131 -39q123 0 227.5 99.5t161 248t56.5 301.5q0 133 -50 232z" />
<glyph unicode="&#xd9;" horiz-adv-x="1384" d="M142 440q3 88 24 195l94 524l10 209h301l-137 -747q-82 -449 203 -449q129 0 229.5 104.5t128.5 253.5l121 629l10 209h269l-160 -823q-51 -260 -210 -416t-400 -156q-141 0 -239.5 39t-150 100.5t-74 150.5t-19.5 177zM475 1792h305l211 -279l-168 -57z" />
<glyph unicode="&#xda;" horiz-adv-x="1384" d="M142 440q3 88 24 195l94 524l10 209h301l-137 -747q-82 -449 203 -449q129 0 229.5 104.5t128.5 253.5l121 629l10 209h269l-160 -823q-51 -260 -210 -416t-400 -156q-141 0 -239.5 39t-150 100.5t-74 150.5t-19.5 177zM633 1513l260 279h305l-410 -336z" />
<glyph unicode="&#xdb;" horiz-adv-x="1384" d="M142 440q3 88 24 195l94 524l10 209h301l-137 -747q-82 -449 203 -449q129 0 229.5 104.5t128.5 253.5l121 629l10 209h269l-160 -823q-51 -260 -210 -416t-400 -156q-141 0 -239.5 39t-150 100.5t-74 150.5t-19.5 177zM463 1520l258 272h209l209 -272l-166 -62l-162 191 l-195 -191z" />
<glyph unicode="&#xdc;" horiz-adv-x="1384" d="M142 440q3 88 24 195l94 524l10 209h301l-137 -747q-82 -449 203 -449q129 0 229.5 104.5t128.5 253.5l121 629l10 209h269l-160 -823q-51 -260 -210 -416t-400 -156q-141 0 -239.5 39t-150 100.5t-74 150.5t-19.5 177zM508 1614q0 51 33.5 89t81 38t81 -38t33.5 -89 t-33.5 -88t-81 -37t-81 37t-33.5 88zM885 1614q0 53 33.5 90t81 37t81 -38t33.5 -89t-33.5 -88t-81 -37t-81 37t-33.5 88z" />
<glyph unicode="&#xdd;" horiz-adv-x="1095" d="M106 1368h310l153 -455l17 -86l57 101l309 440h277l-563 -772l-82 -422l-9 -174h-292l116 594l-196 596zM532 1513l261 279h305l-410 -336z" />
<glyph unicode="&#xde;" horiz-adv-x="1056" d="M59 0l254 1298l19 230l297 20l-60 -303h121q162 0 279.5 -102.5t117.5 -261.5q0 -233 -176 -377t-454 -144h-64l-33 -186l-8 -174h-293zM434 565h88q119 0 203 78t84 223q0 78 -51 129.5t-131 51.5h-97z" />
<glyph unicode="&#xdf;" horiz-adv-x="1167" d="M-209 -305q111 0 187.5 84t101.5 227q23 145 68 419.5t65 418.5h-129l29 188h127l20 127q33 205 177.5 306.5t332.5 101.5q172 0 286.5 -70t114.5 -207q0 -76 -52 -154.5t-114.5 -131t-114.5 -110.5t-52 -101q0 -45 43 -99.5t93 -99.5t93 -113.5t43 -140.5 q0 -154 -126 -260.5t-322 -106.5q-63 0 -122 19.5t-85 40.5l-27 20l64 187q6 -6 27.5 -21.5t69.5 -36t91 -20.5q59 0 108.5 35.5t49.5 97.5q0 47 -26 92t-60.5 82t-70.5 74t-61.5 84t-25.5 98q0 84 51 167t112.5 137t113 121t51.5 120t-43 79.5t-101 26.5q-100 0 -173 -54 t-85 -132l-192 -1192q-37 -223 -163 -357.5t-327 -136.5z" />
<glyph unicode="&#xe0;" horiz-adv-x="1067" d="M47 313q0 190 70.5 361.5t205 281t300.5 109.5q53 0 190 -13.5t201 -17.5l-137 -708q-23 -111 -6.5 -178.5t83.5 -139.5l-254 -35q-41 31 -61.5 80t-15.5 76l2 14q-16 -18 -44 -46.5t-107 -76t-146 -47.5q-117 0 -199 88t-82 252zM309 344q0 -68 20.5 -118t63.5 -50 q45 0 103.5 40t93.5 81l37 41l102 545q-66 8 -92 8q-121 0 -224.5 -165t-103.5 -382zM317 1483h306l211 -279l-168 -57z" />
<glyph unicode="&#xe1;" horiz-adv-x="1067" d="M47 313q0 190 70.5 361.5t205 281t300.5 109.5q53 0 190 -13.5t201 -17.5l-137 -708q-23 -111 -6.5 -178.5t83.5 -139.5l-254 -35q-41 31 -61.5 80t-15.5 76l2 14q-16 -18 -44 -46.5t-107 -76t-146 -47.5q-117 0 -199 88t-82 252zM309 344q0 -68 20.5 -118t63.5 -50 q45 0 103.5 40t93.5 81l37 41l102 545q-66 8 -92 8q-121 0 -224.5 -165t-103.5 -382zM475 1204l260 279h305l-409 -336z" />
<glyph unicode="&#xe2;" horiz-adv-x="1067" d="M47 313q0 190 70.5 361.5t205 281t300.5 109.5q53 0 190 -13.5t201 -17.5l-137 -708q-23 -111 -6.5 -178.5t83.5 -139.5l-254 -35q-41 31 -61.5 80t-15.5 76l2 14q-16 -18 -44 -46.5t-107 -76t-146 -47.5q-117 0 -199 88t-82 252zM305 1210l258 273h209l209 -273 l-166 -61l-162 190l-194 -190zM309 344q0 -68 20.5 -118t63.5 -50q45 0 103.5 40t93.5 81l37 41l102 545q-66 8 -92 8q-121 0 -224.5 -165t-103.5 -382z" />
<glyph unicode="&#xe3;" horiz-adv-x="1067" d="M47 313q0 190 70.5 361.5t205 281t300.5 109.5q53 0 190 -13.5t201 -17.5l-137 -708q-23 -111 -6.5 -178.5t83.5 -139.5l-254 -35q-41 31 -61.5 80t-15.5 76l2 14q-16 -18 -44 -46.5t-107 -76t-146 -47.5q-117 0 -199 88t-82 252zM291 1243q2 6 7 16.5t24.5 36t43 45 t66.5 36t92 16.5q59 0 136 -36t104 -36q98 0 133 72l111 -80q-2 -6 -6.5 -15.5t-20.5 -35t-39.5 -45t-67 -35t-94.5 -15.5q-72 0 -149.5 35t-98.5 35q-90 -2 -135 -70zM309 344q0 -68 20.5 -118t63.5 -50q45 0 103.5 40t93.5 81l37 41l102 545q-66 8 -92 8 q-121 0 -224.5 -165t-103.5 -382z" />
<glyph unicode="&#xe4;" horiz-adv-x="1067" d="M47 313q0 190 70.5 361.5t205 281t300.5 109.5q53 0 190 -13.5t201 -17.5l-137 -708q-23 -111 -6.5 -178.5t83.5 -139.5l-254 -35q-41 31 -61.5 80t-15.5 76l2 14q-16 -18 -44 -46.5t-107 -76t-146 -47.5q-117 0 -199 88t-82 252zM309 344q0 -68 20.5 -118t63.5 -50 q45 0 103.5 40t93.5 81l37 41l102 545q-66 8 -92 8q-121 0 -224.5 -165t-103.5 -382zM350 1304.5q0 51.5 34 89.5t81 38t81 -38t34 -89.5t-34 -88t-81 -36.5t-81 36.5t-34 88zM727 1305q0 53 34 90t81 37t80.5 -38t33.5 -89.5t-33.5 -88t-80.5 -36.5t-81 37t-34 88z" />
<glyph unicode="&#xe5;" horiz-adv-x="1067" d="M47 313q0 190 70.5 361.5t205 281t300.5 109.5q53 0 190 -13.5t201 -17.5l-137 -708q-23 -111 -6.5 -178.5t83.5 -139.5l-254 -35q-41 31 -61.5 80t-15.5 76l2 14q-16 -18 -44 -46.5t-107 -76t-146 -47.5q-117 0 -199 88t-82 252zM309 344q0 -68 20.5 -118t63.5 -50 q45 0 103.5 40t93.5 81l37 41l102 545q-66 8 -92 8q-121 0 -224.5 -165t-103.5 -382zM471 1310.5q0 73.5 54.5 127t128 53.5t130 -53.5t56.5 -127t-56.5 -127t-130 -53.5t-128 53.5t-54.5 127zM567 1313q0 -35 25.5 -65.5t62.5 -30.5q41 0 64.5 29.5t23.5 66.5 q0 35 -26.5 61.5t-61.5 26.5q-37 0 -62.5 -26.5t-25.5 -61.5z" />
<glyph unicode="&#xe6;" horiz-adv-x="1529" d="M47 313q0 190 70.5 361.5t205 281t300.5 109.5q33 0 146.5 -17.5t184.5 -17.5q41 0 122 16.5t124 16.5q152 0 229.5 -68.5t77.5 -179.5q0 -131 -92 -217t-220 -119t-292 -39q0 -109 56.5 -180.5t148.5 -71.5q76 0 161 46.5t132 93.5l45 45l16 -242q-6 -6 -16 -17.5 t-49 -38t-82 -47t-114 -38t-146 -17.5q-260 0 -361 217q-178 -217 -366 -217q-117 0 -199 88t-82 252zM309 344q0 -68 20.5 -118t63.5 -50q45 0 107.5 44t94.5 79t56 66q-2 16 -2 55q0 272 154 454l-74 9q-66 8 -92 8q-121 0 -224.5 -165t-103.5 -382zM922 600q2 0 33.5 4 t40 5t40 6.5t45 9.5t41 13t40 18.5t31.5 23.5t28.5 30.5t16.5 38t7 46.5q0 43 -21.5 65.5t-54.5 22.5q-94 0 -155 -83t-92 -200z" />
<glyph unicode="&#xe7;" horiz-adv-x="944" d="M47 408q0 301 155.5 479t377.5 178q72 0 158.5 -14.5t138.5 -28.5l51 -14l-64 -205q-158 72 -256 71q-139 0 -221 -126.5t-82 -278.5q0 -121 52.5 -202t164.5 -81q70 0 150 44t125 89l45 46l16 -236q-14 -14 -40.5 -34.5t-109.5 -61.5t-169 -53q18 -18 75.5 -59.5 t89 -79.5t31.5 -85q0 -119 -89 -178t-208 -59q-127 0 -231 80l74 141q55 -63 168 -64q80 0 79 56q0 33 -77.5 85t-94.5 83l25 80q-164 23 -249 141.5t-85 286.5z" />
<glyph unicode="&#xe8;" horiz-adv-x="940" d="M59 420q0 266 154 454.5t397 188.5q152 0 230 -68.5t78 -179.5q0 -131 -92.5 -217t-220.5 -119t-292 -39q0 -109 56.5 -180.5t148.5 -71.5q76 0 161 46.5t132 93.5l45 45l16 -242q-6 -6 -16 -17.5t-49 -38t-82 -47t-113.5 -38t-146.5 -17.5q-199 0 -302.5 127t-103.5 320 zM238 1483h305l211 -279l-168 -57zM332 600q2 0 33.5 4t40 5t40 6.5t45 9.5t41 13t40 18.5t32 23.5t28.5 30.5t16 38t7 46.5q0 43 -21.5 65.5t-53.5 22.5q-94 0 -155.5 -83t-92.5 -200z" />
<glyph unicode="&#xe9;" horiz-adv-x="940" d="M59 420q0 266 154 454.5t397 188.5q152 0 230 -68.5t78 -179.5q0 -131 -92.5 -217t-220.5 -119t-292 -39q0 -109 56.5 -180.5t148.5 -71.5q76 0 161 46.5t132 93.5l45 45l16 -242q-6 -6 -16 -17.5t-49 -38t-82 -47t-113.5 -38t-146.5 -17.5q-199 0 -302.5 127t-103.5 320 zM332 600q2 0 33.5 4t40 5t40 6.5t45 9.5t41 13t40 18.5t32 23.5t28.5 30.5t16 38t7 46.5q0 43 -21.5 65.5t-53.5 22.5q-94 0 -155.5 -83t-92.5 -200zM395 1204l260 279h306l-410 -336z" />
<glyph unicode="&#xea;" horiz-adv-x="940" d="M59 420q0 266 154 454.5t397 188.5q152 0 230 -68.5t78 -179.5q0 -131 -92.5 -217t-220.5 -119t-292 -39q0 -109 56.5 -180.5t148.5 -71.5q76 0 161 46.5t132 93.5l45 45l16 -242q-6 -6 -16 -17.5t-49 -38t-82 -47t-113.5 -38t-146.5 -17.5q-199 0 -302.5 127t-103.5 320 zM225 1210l258 273h209l209 -273l-166 -61l-162 190l-194 -190zM332 600q2 0 33.5 4t40 5t40 6.5t45 9.5t41 13t40 18.5t32 23.5t28.5 30.5t16 38t7 46.5q0 43 -21.5 65.5t-53.5 22.5q-94 0 -155.5 -83t-92.5 -200z" />
<glyph unicode="&#xeb;" horiz-adv-x="940" d="M59 420q0 266 154 454.5t397 188.5q152 0 230 -68.5t78 -179.5q0 -131 -92.5 -217t-220.5 -119t-292 -39q0 -109 56.5 -180.5t148.5 -71.5q76 0 161 46.5t132 93.5l45 45l16 -242q-6 -6 -16 -17.5t-49 -38t-82 -47t-113.5 -38t-146.5 -17.5q-199 0 -302.5 127t-103.5 320 zM270 1304.5q0 51.5 34 89.5t81 38t81 -38t34 -89.5t-34 -88t-81 -36.5t-81 36.5t-34 88zM332 600q2 0 33.5 4t40 5t40 6.5t45 9.5t41 13t40 18.5t32 23.5t28.5 30.5t16 38t7 46.5q0 43 -21.5 65.5t-53.5 22.5q-94 0 -155.5 -83t-92.5 -200zM647 1305q0 53 34 90t81 37 t81 -38t34 -89.5t-34 -88t-81 -36.5t-81 37t-34 88z" />
<glyph unicode="&#xec;" horiz-adv-x="577" d="M45 1483h305l211 -279l-168 -57zM55 0l160 827l12 207l289 31l-174 -889l-10 -176h-277z" />
<glyph unicode="&#xed;" horiz-adv-x="577" d="M55 0l160 827l12 207l289 31l-174 -889l-10 -176h-277zM203 1204l260 279h305l-410 -336z" />
<glyph unicode="&#xee;" horiz-adv-x="577" d="M33 1210l258 273h209l209 -273l-166 -61l-162 190l-195 -190zM55 0l160 827l12 207l289 31l-174 -889l-10 -176h-277z" />
<glyph unicode="&#xef;" horiz-adv-x="577" d="M55 0l160 827l12 207l289 31l-174 -889l-10 -176h-277zM78 1304.5q0 51.5 33.5 89.5t81 38t81 -38t33.5 -89.5t-33.5 -88t-81 -36.5t-81 36.5t-33.5 88zM455 1305q0 53 33.5 90t80.5 37t81 -38t34 -89.5t-34 -88t-81 -36.5t-80.5 37t-33.5 88z" />
<glyph unicode="&#xf0;" horiz-adv-x="1105" d="M47 387q0 272 173 475t396 203q61 0 112.5 -14.5t74.5 -26.5l20 -14q-35 129 -110 225l-256 -102l-31 129l182 73q-78 55 -166 80l129 164q174 -41 289 -141l266 106l-16 -147l-156 -62q139 -197 140 -504q0 -223 -66.5 -412.5t-216 -317.5t-358.5 -128q-117 0 -202 41 t-126 106.5t-59.5 131t-18.5 135.5zM305 412q0 -113 45 -185.5t127 -72.5q88 0 160 67.5t113 169t63.5 206.5t22.5 198q-78 82 -203 82q-143 0 -235.5 -150.5t-92.5 -314.5z" />
<glyph unicode="&#xf1;" horiz-adv-x="1132" d="M55 0l162 823l-18 176l293 64l-23 -170q6 6 17.5 18.5t48 42t75.5 52t95.5 41t109.5 18.5q147 0 199.5 -95.5t23.5 -240.5l-108 -559l-12 -170h-277l127 670q37 174 -47 174q-49 0 -117.5 -39t-114.5 -78l-45 -39l-100 -514l-14 -174h-275zM342 1243q2 6 7 16.5t24.5 36 t43 45t66.5 36t92 16.5q59 0 136 -36t104 -36q98 0 133 72l111 -80q-2 -6 -6 -15.5t-20.5 -35t-40 -45t-66.5 -35t-95 -15.5q-72 0 -149.5 35t-97.5 35q-90 -2 -135 -70z" />
<glyph unicode="&#xf2;" horiz-adv-x="1038" d="M47 383q0 303 160 492.5t418 189.5q158 0 260 -108.5t102 -303.5q0 -283 -156.5 -481.5t-416.5 -198.5q-104 0 -181 40t-115 104.5t-54.5 130t-16.5 135.5zM303 420q0 -121 38 -190.5t114 -69.5q100 0 185 123t85 342q0 111 -41 183.5t-111 72.5q-113 0 -191.5 -145.5 t-78.5 -315.5zM309 1483h305l211 -279l-168 -57z" />
<glyph unicode="&#xf3;" horiz-adv-x="1038" d="M47 383q0 303 160 492.5t418 189.5q158 0 260 -108.5t102 -303.5q0 -283 -156.5 -481.5t-416.5 -198.5q-104 0 -181 40t-115 104.5t-54.5 130t-16.5 135.5zM303 420q0 -121 38 -190.5t114 -69.5q100 0 185 123t85 342q0 111 -41 183.5t-111 72.5q-113 0 -191.5 -145.5 t-78.5 -315.5zM467 1204l260 279h305l-409 -336z" />
<glyph unicode="&#xf4;" horiz-adv-x="1038" d="M47 383q0 303 160 492.5t418 189.5q158 0 260 -108.5t102 -303.5q0 -283 -156.5 -481.5t-416.5 -198.5q-104 0 -181 40t-115 104.5t-54.5 130t-16.5 135.5zM297 1210l258 273h209l209 -273l-166 -61l-162 190l-194 -190zM303 420q0 -121 38 -190.5t114 -69.5 q100 0 185 123t85 342q0 111 -41 183.5t-111 72.5q-113 0 -191.5 -145.5t-78.5 -315.5z" />
<glyph unicode="&#xf5;" horiz-adv-x="1038" d="M47 383q0 303 160 492.5t418 189.5q158 0 260 -108.5t102 -303.5q0 -283 -156.5 -481.5t-416.5 -198.5q-104 0 -181 40t-115 104.5t-54.5 130t-16.5 135.5zM283 1243q2 6 7 16.5t24.5 36t43 45t66.5 36t92 16.5q59 0 136 -36t104 -36q98 0 133 72l110 -80q-2 -6 -6 -15.5 t-20.5 -35t-40 -45t-66.5 -35t-94 -15.5q-72 0 -149.5 35t-98.5 35q-90 -2 -135 -70zM303 420q0 -121 38 -190.5t114 -69.5q100 0 185 123t85 342q0 111 -41 183.5t-111 72.5q-113 0 -191.5 -145.5t-78.5 -315.5z" />
<glyph unicode="&#xf6;" horiz-adv-x="1038" d="M47 383q0 303 160 492.5t418 189.5q158 0 260 -108.5t102 -303.5q0 -283 -156.5 -481.5t-416.5 -198.5q-104 0 -181 40t-115 104.5t-54.5 130t-16.5 135.5zM303 420q0 -121 38 -190.5t114 -69.5q100 0 185 123t85 342q0 111 -41 183.5t-111 72.5q-113 0 -191.5 -145.5 t-78.5 -315.5zM342 1304.5q0 51.5 34 89.5t81 38t80.5 -38t33.5 -89.5t-33.5 -88t-80.5 -36.5t-81 36.5t-34 88zM719 1305q0 53 33.5 90t81 37t81 -38t33.5 -89.5t-33.5 -88t-81 -36.5t-81 37t-33.5 88z" />
<glyph unicode="&#xf7;" horiz-adv-x="989" d="M137 406v202h721l-57 -202h-664zM342 170q0 59 42 101t101 42q55 0 96.5 -42t41.5 -101q0 -57 -41 -97t-97 -40q-59 0 -101 40t-42 97zM342 842q0 59 42 101t101 42q55 0 96.5 -42t41.5 -101q0 -57 -41 -97t-97 -40q-59 0 -101 40t-42 97z" />
<glyph unicode="&#xf8;" horiz-adv-x="1038" d="M-12 -207l170 275q-111 111 -111 315q0 303 160 492.5t418 189.5q68 0 131 -23l112 181l146 -37l-137 -221q111 -115 110 -312q0 -283 -156.5 -481.5t-416.5 -198.5q-80 0 -144 23l-155 -250zM297 420q0 -47 14 -119l35 72l297 483q-31 25 -70 25q-113 0 -194.5 -145.5 t-81.5 -315.5zM385 178q31 -18 70 -18q102 0 189 123t87 342q0 43 -14 104l-39 -82z" />
<glyph unicode="&#xf9;" horiz-adv-x="1140" d="M98 305l107 559l10 170h279l-127 -669q-37 -174 57 -175q86 0 264 170l6 7l97 493l14 174h274l-137 -708q-23 -111 -6.5 -178.5t84.5 -139.5l-250 -35q-43 31 -62.5 82t-15.5 90l2 17q-6 -8 -17 -20.5t-50 -45.5t-79 -57.5t-100.5 -45t-119.5 -20.5q-145 0 -202 92.5 t-28 239.5zM332 1483h305l211 -279l-168 -57z" />
<glyph unicode="&#xfa;" horiz-adv-x="1140" d="M98 305l107 559l10 170h279l-127 -669q-37 -174 57 -175q86 0 264 170l6 7l97 493l14 174h274l-137 -708q-23 -111 -6.5 -178.5t84.5 -139.5l-250 -35q-43 31 -62.5 82t-15.5 90l2 17q-6 -8 -17 -20.5t-50 -45.5t-79 -57.5t-100.5 -45t-119.5 -20.5q-145 0 -202 92.5 t-28 239.5zM489 1204l261 279h305l-410 -336z" />
<glyph unicode="&#xfb;" horiz-adv-x="1140" d="M98 305l107 559l10 170h279l-127 -669q-37 -174 57 -175q86 0 264 170l6 7l97 493l14 174h274l-137 -708q-23 -111 -6.5 -178.5t84.5 -139.5l-250 -35q-43 31 -62.5 82t-15.5 90l2 17q-6 -8 -17 -20.5t-50 -45.5t-79 -57.5t-100.5 -45t-119.5 -20.5q-145 0 -202 92.5 t-28 239.5zM319 1210l259 273h208l209 -273l-166 -61l-161 190l-195 -190z" />
<glyph unicode="&#xfc;" horiz-adv-x="1140" d="M98 305l107 559l10 170h279l-127 -669q-37 -174 57 -175q86 0 264 170l6 7l97 493l14 174h274l-137 -708q-23 -111 -6.5 -178.5t84.5 -139.5l-250 -35q-43 31 -62.5 82t-15.5 90l2 17q-6 -8 -17 -20.5t-50 -45.5t-79 -57.5t-100.5 -45t-119.5 -20.5q-145 0 -202 92.5 t-28 239.5zM365 1304.5q0 51.5 33.5 89.5t80.5 38t81 -38t34 -89.5t-34 -88t-81 -36.5t-80.5 36.5t-33.5 88zM741 1305q0 53 34 90t81 37t81 -38t34 -89.5t-34 -88t-81 -36.5t-81 37t-34 88z" />
<glyph unicode="&#xfd;" horiz-adv-x="995" d="M-227 -248q80 -31 149 -31q143 0 258 166l92 131l-24 58l-115 758l-63 192l284 39l92 -625l7 -174l86 174l159 262q47 76 47 154q0 33 -14 76t-26 67l-15 27l268 39q47 -92 48 -178q0 -117 -101 -275l-514 -817q-92 -147 -219 -220t-252 -73l-135 25zM365 1202l260 279 h305l-410 -336z" />
<glyph unicode="&#xfe;" horiz-adv-x="1089" d="M-39 -492l354 1817l-16 182l301 60l-115 -592l-26 -80q16 18 43.5 47t108.5 76t155 47q113 0 189.5 -91t76.5 -259q0 -197 -59.5 -361t-192.5 -272.5t-319 -108.5q-20 0 -58 6.5t-67 12.5l-27 6l-59 -315l-10 -175h-279zM344 182q68 -20 117 -20q139 0 224 155.5 t85 368.5q0 166 -86 166q-78 0 -238 -164l-4 -4z" />
<glyph unicode="&#xff;" horiz-adv-x="995" d="M-227 -248q80 -31 149 -31q143 0 258 166l92 131l-24 58l-115 758l-63 192l284 39l92 -625l7 -174l86 174l159 262q47 76 47 154q0 33 -14 76t-26 67l-15 27l268 39q47 -92 48 -178q0 -117 -101 -275l-514 -817q-92 -147 -219 -220t-252 -73l-135 25zM291 1302.5 q0 51.5 33.5 89.5t81 38t81 -38t33.5 -89.5t-33.5 -88t-81 -36.5t-81 36.5t-33.5 88zM668 1303q0 53 33.5 90t80.5 37t81 -38t34 -89.5t-34 -88t-81 -36.5t-80.5 37t-33.5 88z" />
<glyph unicode="&#x152;" horiz-adv-x="1697" d="M72 522q0 362 206.5 604t548.5 242h881l-35 -203h-442l-74 -362h414l-76 -203h-377l-74 -397h496l-80 -203h-876q-244 0 -378 146.5t-134 375.5zM344 547q0 -164 71.5 -261.5t192.5 -97.5h164l184 930l2 64h-147q-74 0 -152.5 -39t-150.5 -112t-118 -199.5t-46 -284.5z " />
<glyph unicode="&#x153;" horiz-adv-x="1576" d="M47 383q0 303 160 492.5t418 189.5q96 0 165.5 -39t92.5 -76l22 -39q4 6 13.5 16.5t40 37t66.5 46t96.5 36t125.5 16.5q152 0 229.5 -68.5t77.5 -179.5q0 -131 -92 -217t-220 -119t-292 -39q0 -109 56.5 -180.5t148.5 -71.5q76 0 161 46.5t130 93.5l47 45l16 -242 q-6 -6 -16 -17.5t-49 -38t-82 -47t-113.5 -38t-146.5 -17.5q-180 0 -295 146l-16 22l-18 -17q-11 -11 -48 -41t-78 -51.5t-104.5 -40t-128.5 -18.5q-104 0 -181 40t-115 104.5t-54.5 130t-16.5 135.5zM303 420q0 -121 38 -190.5t114 -69.5q100 0 185 123t85 342 q0 111 -41 183.5t-111 72.5q-113 0 -191.5 -145.5t-78.5 -315.5zM969 600q2 0 33.5 4t40 5t40 6.5t45 9.5t41 13t40 18.5t32 23.5t28.5 30.5t16 38t7 46.5q0 43 -21.5 65.5t-53.5 22.5q-94 0 -155.5 -83t-92.5 -200z" />
<glyph unicode="&#x178;" horiz-adv-x="1095" d="M106 1368h310l153 -455l17 -86l57 101l309 440h277l-563 -772l-82 -422l-9 -174h-292l116 594l-196 596zM283 1614q0 51 33.5 89t80.5 38t81 -38t34 -89t-34 -88t-81 -37t-80.5 37t-33.5 88zM659 1614q0 53 34 90t81 37t81 -38t34 -89t-34 -88t-81 -37t-81 37t-34 88z " />
<glyph unicode="&#x2c6;" horiz-adv-x="823" d="M61 1210l258 273h209l209 -273l-166 -61l-161 190l-195 -190z" />
<glyph unicode="&#x2dc;" horiz-adv-x="778" d="M41 1243q2 6 7 16.5t24.5 36t43 45t66.5 36t92 16.5q59 0 136 -36t104 -36q98 0 133 72l111 -80q-2 -6 -6 -15.5t-20.5 -35t-40 -45t-66.5 -35t-95 -15.5q-72 0 -149.5 35t-97.5 35q-90 -2 -136 -70z" />
<glyph unicode="&#x2000;" horiz-adv-x="899" />
<glyph unicode="&#x2001;" horiz-adv-x="1800" />
<glyph unicode="&#x2002;" horiz-adv-x="899" />
<glyph unicode="&#x2003;" horiz-adv-x="1800" />
<glyph unicode="&#x2004;" horiz-adv-x="600" />
<glyph unicode="&#x2005;" horiz-adv-x="448" />
<glyph unicode="&#x2006;" horiz-adv-x="299" />
<glyph unicode="&#x2007;" horiz-adv-x="299" />
<glyph unicode="&#x2008;" horiz-adv-x="223" />
<glyph unicode="&#x2009;" horiz-adv-x="358" />
<glyph unicode="&#x200a;" horiz-adv-x="98" />
<glyph unicode="&#x2010;" horiz-adv-x="638" d="M33 399v213h596l-58 -213h-538z" />
<glyph unicode="&#x2011;" horiz-adv-x="638" d="M33 399v213h596l-58 -213h-538z" />
<glyph unicode="&#x2012;" horiz-adv-x="638" d="M33 399v213h596l-58 -213h-538z" />
<glyph unicode="&#x2013;" horiz-adv-x="946" d="M74 399v213h825l-57 -213h-768z" />
<glyph unicode="&#x2014;" horiz-adv-x="1411" d="M74 399v213h1286l-57 -213h-1229z" />
<glyph unicode="&#x2018;" horiz-adv-x="512" d="M164 1001q0 84 79 193t238 207l58 -88q-68 -47 -110 -110.5t-42 -110.5q0 -41 13.5 -60.5t45.5 -34.5v-14q0 -49 -39.5 -94t-97.5 -45q-61 0 -103 40.5t-42 116.5z" />
<glyph unicode="&#x2019;" horiz-adv-x="512" d="M158 932q68 47 109.5 110.5t41.5 110.5q0 41 -13 60.5t-46 33.5v15q0 49 40 94t97 45q61 0 103 -41t42 -117q0 -84 -78.5 -192.5t-238.5 -206.5z" />
<glyph unicode="&#x201a;" horiz-adv-x="512" d="M-16 -195q68 47 109.5 111t41.5 111q0 41 -13 60t-46 34v14q0 49 40 94t97 45q61 0 103 -40.5t42 -116.5q0 -84 -78.5 -192.5t-238.5 -207.5z" />
<glyph unicode="&#x201c;" horiz-adv-x="874" d="M164 1001q0 84 79 193t238 207l58 -88q-68 -47 -110 -110.5t-42 -110.5q0 -41 13.5 -60.5t45.5 -34.5v-14q0 -49 -39.5 -94t-97.5 -45q-61 0 -103 40.5t-42 116.5zM526 1001q0 84 79 193t239 207l57 -88q-68 -47 -109.5 -110.5t-41.5 -110.5q0 -41 13 -60.5t46 -34.5v-14 q0 -49 -40 -94t-97 -45q-61 0 -103.5 40.5t-42.5 116.5z" />
<glyph unicode="&#x201d;" horiz-adv-x="870" d="M158 932q68 47 109.5 110.5t41.5 110.5q0 41 -13 60.5t-46 33.5v15q0 49 40 94t97 45q61 0 103 -41t42 -117q0 -84 -78.5 -192.5t-238.5 -206.5zM516 932q68 47 110 110.5t42 110.5q0 41 -13.5 60.5t-46.5 33.5v15q0 49 40 94t97 45q61 0 103.5 -41t42.5 -117 q0 -84 -79 -192.5t-239 -206.5z" />
<glyph unicode="&#x201e;" horiz-adv-x="870" d="M-16 -195q68 47 109.5 111t41.5 111q0 41 -13 60t-46 34v14q0 49 40 94t97 45q61 0 103 -40.5t42 -116.5q0 -84 -78.5 -192.5t-238.5 -207.5zM342 -195q68 47 110 111t42 111q0 41 -13.5 60t-46.5 34v14q0 49 40 94t97 45q61 0 103.5 -40.5t42.5 -116.5q0 -84 -79 -192.5 t-239 -207.5z" />
<glyph unicode="&#x2022;" horiz-adv-x="868" d="M117 506q0 129 92 220t223 91q129 0 221 -91t92 -220q0 -131 -92 -223.5t-221 -92.5q-133 0 -224 91.5t-91 224.5z" />
<glyph unicode="&#x2026;" horiz-adv-x="1501" d="M145 104q0 53 38 90t93 37q51 0 89 -37.5t38 -89.5q0 -55 -36.5 -93t-90.5 -38q-55 0 -93 38t-38 93zM627 104q0 51 39 89t92 38t90 -37.5t37 -89.5q0 -55 -37 -93t-90 -38t-92 38t-39 93zM1100 104q0 53 38 90t91 37t91 -36.5t38 -90.5q0 -55 -38 -93t-91 -38t-91 38 t-38 93z" />
<glyph unicode="&#x202f;" horiz-adv-x="358" />
<glyph unicode="&#x2039;" horiz-adv-x="800" d="M51 508l629 500l80 -189l-395 -317l264 -309l-148 -185z" />
<glyph unicode="&#x203a;" horiz-adv-x="800" d="M41 197l395 317l-264 309l147 185l431 -500l-629 -500z" />
<glyph unicode="&#x205f;" horiz-adv-x="448" />
<glyph unicode="&#x20ac;" horiz-adv-x="1230" d="M-39 408l37 182h111q10 86 26 149h-110l34 183h142q100 213 287.5 340t441.5 127q92 0 184 -27t139 -51l45 -27l-110 -203q-12 12 -35 29.5t-103.5 46.5t-175.5 29q-268 0 -425 -264h653l-101 -183h-628q-20 -72 -31 -149h594l-102 -182h-492q37 -229 330 -230 q190 0 405 152l-47 -238q-207 -119 -436 -119q-213 0 -343 113t-147 322h-143z" />
<glyph unicode="&#x2122;" horiz-adv-x="1662" d="M55 1284v160h592v-160h-190v-493l14 -117h-233v610h-183zM698 1444h160l311 -438l279 438h158v-653l14 -117h-242v352l-211 -328l-245 338v-245l14 -117h-221v637z" />
<glyph unicode="&#xe000;" horiz-adv-x="1065" d="M0 1065h1065v-1065h-1065v1065z" />
<glyph unicode="&#xfb01;" horiz-adv-x="1224" d="M-217 -305q121 0 202 84t103 227l125 840h-129l29 188h127l18 107q37 211 192.5 317.5t352.5 106.5q109 0 208 -39t144 -76l47 -39l-119 -207q-18 18 -46.5 45t-105.5 72t-136 45q-121 0 -194 -63.5t-87 -153.5l-18 -115h413l254 27l-174 -887l-8 -174h-281l160 811v35 h-391l-127 -848q-33 -223 -163 -357.5t-333 -136.5z" />
<glyph unicode="&#xfb02;" horiz-adv-x="1189" d="M-217 -305q121 0 202 84t103 227l125 840h-129l29 188h127l18 107q37 211 192.5 317.5t352.5 106.5q68 0 229.5 -45t204.5 -54l-252 -1292l-10 -174h-277l256 1319q-100 47 -159 47q-121 0 -194 -63.5t-87 -153.5l-18 -115h239l-92 -188h-174l-127 -848 q-33 -223 -163 -357.5t-333 -136.5z" />
<glyph unicode="&#xfb03;" horiz-adv-x="1871" d="M-217 -305q121 0 202 84t103 227l125 840h-129l29 188h127l18 107q37 211 192.5 317.5t352.5 106.5q168 0 317 -92q143 92 330 92q109 0 208 -39t144 -76l47 -39l-118 -207q-18 18 -47 45t-106 72t-136 45q-121 0 -193.5 -63.5t-87.5 -153.5l-18 -115h413l254 27 l-174 -887l-8 -174h-280l159 811v35h-391l-127 -848q-33 -223 -163 -357.5t-332 -136.5l-64 191q121 0 202 84t103 227l125 840h-391l-127 -848q-33 -223 -163 -357.5t-333 -136.5zM496 1034h391l18 107q16 94 56 164q-90 61 -166 61q-121 0 -194 -63.5t-87 -153.5z" />
<glyph unicode="&#xfb04;" horiz-adv-x="1837" d="M-217 -305q121 0 202 84t103 227l125 840h-129l29 188h127l18 107q37 211 192.5 317.5t352.5 106.5q168 0 317 -92q143 92 330 92q68 0 229.5 -45t204.5 -54l-252 -1292l-10 -174h-276l256 1319q-100 47 -160 47q-121 0 -193.5 -63.5t-87.5 -153.5l-18 -115h239l-92 -188 h-174l-127 -848q-33 -223 -163 -357.5t-332 -136.5l-64 191q121 0 202 84t103 227l125 840h-391l-127 -848q-33 -223 -163 -357.5t-333 -136.5zM496 1034h391l18 107q16 94 56 164q-90 61 -166 61q-121 0 -194 -63.5t-87 -153.5z" />
<glyph horiz-adv-x="512" />
</font>
</defs>
</svg>
